<?xml version="1.0" encoding="utf-8"?>
<!-- Generator: Adobe Illustrator 24.1.1, SVG Export Plug-In . SVG Version: 6.00 Build 0)  -->
<svg version="1.1" id="Layer_1" xmlns="http://www.w3.org/2000/svg" xmlns:xlink="http://www.w3.org/1999/xlink" x="0px" y="0px"
	 viewBox="0 0 512 512" style="enable-background:new 0 0 512 512;" xml:space="preserve">
<style type="text/css">
	.st0{fill:#6B7280;}
</style>
<path class="st0" d="M334.1,256h78.1v62.5c0,34.5-28,62.5-62.5,62.5h-7.8c-13,0-23.4,10.4-23.4,23.4v46.9c0,13,10.4,23.4,23.4,23.4
	h7.8c86.3,0,156.3-69.9,156.3-156.3V84.1c0-25.9-21-46.9-46.9-46.9h-125c-25.9,0-46.9,21-46.9,46.9v125
	C287.3,235,308.2,256,334.1,256z M52.9,256H131v62.5c0,34.5-28,62.5-62.5,62.5h-7.8c-13,0-23.4,10.4-23.4,23.4v46.9
	c0,13,10.4,23.4,23.4,23.4h7.8c86.3,0,156.3-69.9,156.3-156.3V84.1c0-25.9-21-46.9-46.9-46.9h-125C27,37.3,6,58.2,6,84.1v125
	C6,235,27,256,52.9,256z"/>
</svg>
